<?xml version="1.0" encoding="UTF-8" standalone="no"?>
<svg width="12px" height="12px" viewBox="0 0 12 12" version="1.1" xmlns="http://www.w3.org/2000/svg" xmlns:xlink="http://www.w3.org/1999/xlink">
    <!-- Generator: Sketch 40.3 (33839) - http://www.bohemiancoding.com/sketch -->
    <title>Instagram</title>
    <desc>Created with Sketch.</desc>
    <defs></defs>
    <g id="Welcome" stroke="none" stroke-width="1" fill="none" fill-rule="evenodd">
        <g id="Desktop-HD" transform="translate(-604.000000, -21.000000)" fill="#EF483E">
            <path d="M610.000012,21 C608.370498,21 608.166171,21.0069069 607.526208,21.0361066 C606.887578,21.0652349 606.451416,21.1666716 606.069772,21.3150041 C605.675219,21.4683144 605.340613,21.6734744 605.007032,22.007032 C604.673474,22.3406134 604.468314,22.675219 604.315004,23.069772 C604.166672,23.4514162 604.065235,23.8875776 604.036107,24.5262077 C604.006907,25.1661715 604,25.3704978 604,27.0000119 C604,28.6295022 604.006907,28.8338285 604.036107,29.4737923 C604.065235,30.1124224 604.166672,30.5485838 604.315004,30.930228 C604.468314,31.324781 604.673474,31.6593866 605.007032,31.992968 C605.340613,32.3265256 605.675219,32.5316856 606.069772,32.6850197 C606.451416,32.8333284 606.887578,32.9347651 607.526208,32.9638934 C608.166171,32.9930931 608.370498,33 610.000012,33 C611.629502,33 611.833829,32.9930931 612.473792,32.9638934 C613.112422,32.9347651 613.548584,32.8333284 613.930228,32.6850197 C614.324781,32.5316856 614.659387,32.3265256 614.992968,31.992968 C615.326526,31.6593866 615.531686,31.324781 615.68502,30.930228 C615.833328,30.5485838 615.934765,30.1124224 615.963893,29.4737923 C615.993093,28.8338285 616,28.6295022 616,27.0000119 C616,25.3704978 615.993093,25.1661715 615.963893,24.5262077 C615.934765,23.8875776 615.833328,23.4514162 615.68502,23.069772 C615.531686,22.675219 615.326526,22.3406134 614.992968,22.007032 C614.659387,21.6734744 614.324781,21.4683144 613.930228,21.3150041 C613.548584,21.1666716 613.112422,21.0652349 612.473792,21.0361066 C611.833829,21.0069069 611.629502,21 610.000012,21 Z M610.000012,22.0810791 C611.602065,22.0810791 611.791839,22.0872001 612.424515,22.1160664 C613.009509,22.1427415 613.327204,22.2404866 613.538628,22.3226554 C613.818693,22.4314992 614.018565,22.5615164 614.228513,22.7714874 C614.438484,22.9814346 614.568501,23.1813072 614.677345,23.4613717 C614.759513,23.6727956 614.857259,23.990491 614.883934,24.5754851 C614.9128,25.2081609 614.918921,25.3979351 614.918921,27.0000119 C614.918921,28.6020649 614.9128,28.7918391 614.883934,29.4245149 C614.857259,30.009509 614.759513,30.3272044 614.677345,30.5386283 C614.568501,30.8186928 614.438484,31.0185654 614.228513,31.2285126 C614.018565,31.4384836 613.818693,31.5685008 613.538628,31.6773446 C613.327204,31.7595134 613.009509,31.8572585 612.424515,31.8839336 C611.791934,31.9127999 611.602184,31.9189209 610.000012,31.9189209 C608.397816,31.9189209 608.208089,31.9127999 607.575485,31.8839336 C606.990491,31.8572585 606.672796,31.7595134 606.461372,31.6773446 C606.181307,31.5685008 605.981435,31.4384836 605.771487,31.2285126 C605.56154,31.0185654 605.431499,30.8186928 605.322655,30.5386283 C605.240487,30.3272044 605.142741,30.009509 605.116066,29.4245149 C605.0872,28.7918391 605.081079,28.6020649 605.081079,27.0000119 C605.081079,25.3979351 605.0872,25.2081609 605.116066,24.5754851 C605.142741,23.990491 605.240487,23.6727956 605.322655,23.4613717 C605.431499,23.1813072 605.561516,22.9814346 605.771487,22.7714874 C605.981435,22.5615164 606.181307,22.4314992 606.461372,22.3226554 C606.672796,22.2404866 606.990491,22.1427415 607.575485,22.1160664 C608.208161,22.0872001 608.397935,22.0810791 610.000012,22.0810791 Z M610.000012,23.9189209 C608.298356,23.9189209 606.918921,25.298356 606.918921,27.0000119 C606.918921,28.701644 608.298356,30.0810791 610.000012,30.0810791 C611.701644,30.0810791 613.081079,28.701644 613.081079,27.0000119 C613.081079,25.298356 611.701644,23.9189209 610.000012,23.9189209 Z M610.000012,29 C608.895425,29 608,28.1045747 608,27.0000119 C608,25.8954253 608.895425,25 610.000012,25 C611.104575,25 612,25.8954253 612,27.0000119 C612,28.1045747 611.104575,29 610.000012,29 Z M613.922821,23.797192 C613.922821,24.1948412 613.600457,24.517181 613.202808,24.517181 C612.805183,24.517181 612.482819,24.1948412 612.482819,23.797192 C612.482819,23.3995427 612.805183,23.0771791 613.202808,23.0771791 C613.600457,23.0771791 613.922821,23.3995427 613.922821,23.797192 Z" id="Instagram"></path>
        </g>
    </g>
</svg>