<?xml version="1.0" encoding="UTF-8" standalone="no"?>
<svg width="171px" height="26px" viewBox="0 0 171 26" version="1.1" xmlns="http://www.w3.org/2000/svg" xmlns:xlink="http://www.w3.org/1999/xlink">
    <!-- Generator: Sketch 40.3 (33839) - http://www.bohemiancoding.com/sketch -->
    <title>Page 1</title>
    <desc>Created with Sketch.</desc>
    <defs>
        <polygon id="path-1" points="2.9666246e-20 0.0119767892 2.9666246e-20 24.3716518 27.7249968 24.3716518 27.7249968 0.0119767892 0 0.0119767892"></polygon>
        <polygon id="path-3" points="0.174243014 25.6247582 22.7366338 25.6247582 22.7366338 0.0821663443 0.174243014 0.0821663443"></polygon>
        <polygon id="path-5" points="25.5963206 24.8588565 25.5963206 0.0123110251 0.093907353 0.0123110251 0.093907353 24.8588565 25.5963206 24.8588565"></polygon>
    </defs>
    <g id="Welcome" stroke="none" stroke-width="1" fill="none" fill-rule="evenodd">
        <g id="Desktop-HD-Copy-4" transform="translate(-282.000000, -46.000000)">
            <g id="Page-1" transform="translate(282.000000, 46.000000)">
                <g id="Group-3" transform="translate(0.000000, 1.031954)">
                    <mask id="mask-2" fill="white">
                        <use xlink:href="#path-1"></use>
                    </mask>
                    <g id="Clip-2"></g>
                    <path d="M16.1359757,24.3716518 L16.1359757,24.0234894 C17.7426889,23.3277215 18.4951517,22.0052611 18.4951517,19.7781354 L18.4951517,14.8364565 L9.23028288,14.8364565 L9.23028288,19.7781354 C9.23028288,21.9356286 10.1534863,23.3277215 11.6233881,24.0234894 L11.6233881,24.3716518 L-0.000109449129,24.3716518 L-0.000109449129,24.0234894 C1.4703396,23.3277215 2.39299577,21.9356286 2.39299577,19.7781354 L2.39299577,4.64058801 C2.39299577,2.06529981 1.26512249,0.847566731 -0.000109449129,0.360139265 L-0.000109449129,0.0119767892 L11.6233881,0.0119767892 L11.6233881,0.360139265 C10.3242269,0.812471954 9.23028288,2.06529981 9.23028288,4.64058801 L9.23028288,9.26864217 L18.4951517,9.26864217 L18.4951517,4.64058801 C18.5290809,2.2045648 17.8110946,0.917199226 16.1359757,0.360139265 L16.1359757,0.0119767892 L27.7249968,0.0119767892 L27.7249968,0.360139265 C26.15276,0.951736944 25.366368,2.23965957 25.366368,4.64058801 L25.366368,19.7781354 C25.366368,22.0748936 25.9814721,23.3277215 27.7249968,24.0234894 L27.7249968,24.3716518 L16.1359757,24.3716518 Z" id="Fill-1" fill="#21161D" mask="url(#mask-2)"></path>
                </g>
                <path d="M41.4669369,6.64689516 L40.9196913,6.64689516 L38.321369,14.8596302 L44.0307828,14.8596302 L41.4669369,6.64689516 Z M43.9968536,25.4036611 L43.9968536,25.0554986 C45.2954675,24.4989957 46.423888,22.5498429 45.5690903,19.661487 L36.8175379,19.661487 C35.9627402,22.5498429 37.0911607,24.4989957 38.3897747,25.0554986 L38.3897747,25.4036611 L27.3819285,25.4036611 L27.3819285,25.0554986 C28.1683205,24.463901 28.6810896,23.6288681 29.604293,21.2970151 C30.6637606,18.6175567 33.4328236,9.67451605 34.356027,6.78616015 C35.5867825,2.99258182 34.2192156,1.67067853 33.1936772,1.39214855 L33.1936772,1.04398607 L49.8764608,1.04398607 L49.8764608,1.39214855 C48.8509224,1.67067853 47.4833556,2.99258182 48.714111,6.78616015 C49.6373144,9.67451605 52.6800002,19.1395219 53.4663922,21.2970151 C54.3551192,23.7330383 55.1754404,24.6377037 55.6882096,25.0554986 L55.6882096,25.4036611 L43.9968536,25.4036611 Z" id="Fill-4" fill="#21161D"></path>
                <path d="M64.541878,6.61207892 L64.541878,12.1798932 L70.387556,12.1798932 C72.5070384,12.1798932 73.9085345,11.2401331 73.9085345,9.4658971 C73.9085345,7.51674429 72.5070384,6.61207892 70.387556,6.61207892 L64.541878,6.61207892 Z M55.3454149,25.4033826 L55.3454149,25.0557772 C56.9521281,24.3594522 57.7045909,23.1417191 57.7045909,20.8098662 L57.7045909,5.63778104 C57.7045909,3.58445803 57.0889395,2.15782747 55.3454149,1.39187002 L55.3454149,1.0442646 L70.4904382,1.0442646 C77.2248431,1.0442646 80.7458216,4.66292611 80.7458216,9.29153733 C80.7458216,13.3285509 77.7031358,16.4948797 73.0882133,16.4948797 C72.8829961,16.4948797 72.6438498,16.4948797 72.4047034,16.460342 C73.8746053,17.4346398 75.2076956,18.3047675 76.7804796,18.3047675 C78.0796408,18.3047675 78.59241,17.2608371 78.59241,17.2608371 C79.5840191,17.7477075 80.8481565,18.8267327 80.8481565,20.7753284 C80.8481565,23.5244193 79.1391084,25.8908101 75.4129128,25.8908101 C69.7379754,25.8908101 68.404885,17.4346398 64.541878,16.5299745 L64.541878,20.8098662 C64.541878,23.1417191 65.2937935,24.3594522 66.9005067,25.0557772 L66.9005067,25.4033826 L55.3454149,25.4033826 Z" id="Fill-6" fill="#21161D"></path>
                <path d="M91.4103259,6.61207892 L91.4103259,12.1798932 L97.2565511,12.1798932 C99.3760335,12.1798932 100.77753,11.2401331 100.77753,9.4658971 C100.77753,7.51674429 99.3760335,6.61207892 97.2565511,6.61207892 L91.4103259,6.61207892 Z M82.2149573,25.4033826 L82.2149573,25.0557772 C83.8211232,24.3594522 84.573586,23.1417191 84.573586,20.8098662 L84.573586,5.63778104 C84.573586,3.58445803 83.9579346,2.15782747 82.2149573,1.39187002 L82.2149573,1.0442646 L97.3588861,1.0442646 C104.093838,1.0442646 107.614269,4.66292611 107.614269,9.29153733 C107.614269,13.3285509 104.572131,16.4948797 99.9566611,16.4948797 C99.7519913,16.4948797 99.5128449,16.4948797 99.2731513,16.460342 C100.7436,17.4346398 102.076691,18.3047675 103.648928,18.3047675 C104.948089,18.3047675 105.460858,17.2608371 105.460858,17.2608371 C106.452467,17.7477075 107.717152,18.8267327 107.717152,20.7753284 C107.717152,23.5244193 106.008104,25.8908101 102.281361,25.8908101 C96.6069705,25.8908101 95.2738801,17.4346398 91.4103259,16.5299745 L91.4103259,20.8098662 C91.4103259,23.1417191 92.1627886,24.3594522 93.7695019,25.0557772 L93.7695019,25.4033826 L82.2149573,25.4033826 Z" id="Fill-8" fill="#21161D"></path>
                <path d="M109.425105,25.4036054 L109.425105,25.0554429 C111.031819,24.359675 111.784281,23.1413849 111.784281,20.810089 L111.784281,5.63800387 C111.784281,3.30615087 111.031819,2.08841779 109.425105,1.39209284 L109.425105,1.04393037 L120.97965,1.04393037 L120.97965,1.39209284 C119.373484,2.08841779 118.621021,3.30615087 118.621021,5.63800387 L118.621021,20.810089 C118.621021,23.1413849 119.373484,24.359675 120.97965,25.0554429 L120.97965,25.4036054 L109.425105,25.4036054 Z" id="Fill-10" fill="#21161D"></path>
                <g id="Group-14" transform="translate(121.488534, 0.474894)">
                    <mask id="mask-4" fill="white">
                        <use xlink:href="#path-3"></use>
                    </mask>
                    <g id="Clip-13"></g>
                    <path d="M0.174243014,24.9287118 L0.174243014,24.5805493 C1.67807405,24.0936789 2.533419,22.5968588 2.533419,20.3351954 L2.533419,5.19764797 C2.533419,2.86635203 1.78095623,1.47425919 0.174243014,0.917199226 L0.174243014,0.56903675 L16.4810688,0.56903675 C19.8997124,0.56903675 20.6516279,0.0821663443 20.6516279,0.0821663443 L22.1215297,7.2855087 L21.8139776,7.39023598 C21.1304678,6.83317602 20.0365238,6.13740812 17.5066071,6.13740812 L9.37015887,6.13740812 L9.37015887,11.496325 C10.1565509,9.89533462 11.9684812,8.78177176 14.3615864,8.78177176 C17.5405364,8.78177176 19.6944952,10.5220271 19.6944952,13.0271257 C19.6944952,15.1155435 17.9504234,16.1940116 16.207446,16.1940116 C16.207446,15.2197137 15.4894597,14.2454159 13.7459351,14.2454159 C11.4212356,14.2454159 9.37015887,16.2987389 9.37015887,19.3608975 L17.8486357,19.3608975 C20.2067172,19.3608975 21.4719491,18.4211373 22.463011,17.516472 L22.7366338,17.6557369 L21.3351377,25.6250368 C21.3351377,25.6250368 20.2751229,24.9287118 16.8225501,24.9287118 L0.174243014,24.9287118 Z" id="Fill-12" fill="#21161D" mask="url(#mask-4)"></path>
                </g>
                <g id="Group-17" transform="translate(144.472851, 1.031954)">
                    <mask id="mask-6" fill="white">
                        <use xlink:href="#path-5"></use>
                    </mask>
                    <g id="Clip-16"></g>
                    <path d="M9.28982321,5.58012534 L9.28982321,11.1479397 L15.1360485,11.1479397 C17.2555308,11.1479397 18.6570269,10.2081795 18.6570269,8.43394352 C18.6570269,6.48479072 17.2555308,5.58012534 15.1360485,5.58012534 L9.28982321,5.58012534 Z M0.093907353,24.371429 L0.093907353,24.0238236 C1.70062057,23.3274986 2.45308334,22.1097656 2.45308334,19.7779126 L2.45308334,4.60582747 C2.45308334,2.55250445 1.83743198,1.12587389 0.093907353,0.359916441 L0.093907353,0.0123110251 L15.2383834,0.0123110251 C21.9733356,0.0123110251 25.4937668,3.63097253 25.4937668,8.25958375 C25.4937668,12.2965973 22.4516283,15.4629261 17.8361585,15.4629261 C17.6314886,15.4629261 17.3923423,15.4629261 17.1526487,15.4283884 C18.6230977,16.4026863 19.9561881,17.2728139 21.5284249,17.2728139 C22.827586,17.2728139 23.3403552,16.2288836 23.3403552,16.2288836 C24.3319643,16.715754 25.596649,17.7947791 25.596649,19.7433749 C25.596649,22.4924658 23.8876008,24.8588565 20.160858,24.8588565 C14.4864679,24.8588565 13.1533775,16.4026863 9.28982321,15.4980209 L9.28982321,19.7779126 C9.28982321,22.1097656 10.042286,23.3274986 11.6489992,24.0238236 L11.6489992,24.371429 L0.093907353,24.371429 Z" id="Fill-15" fill="#21161D" mask="url(#mask-6)"></path>
                </g>
            </g>
        </g>
    </g>
</svg>